name rise31.4854peak64.571fall78.6902.mot
datacolumns 19
datarows 26
range 5.03165100000000 5.07331800000000
endheader
time	ground_force1_vx	ground_force1_vy	ground_force1_vz	ground_force1_px	ground_force1_py	ground_force1_pz	ground_force2_vx	ground_force2_vy	ground_force2_vz	ground_force2_px	ground_force2_py	ground_force2_pz	ground_torque1_x	ground_torque1_y	ground_torque1_z	ground_torque2_x	ground_torque2_y	ground_torque2_z	
5.03165100000000	-5.34410900000000	42.59210600000000	-12.66004400000000	0.30341100000000	0.00000000000000	0.06262800000000	-50.22247700000000	788.46481900000003	-38.64953300000000	0.11324600000000	0.00000000000000	-0.08687300000000	0.00000000000000	-8.85267300000000	0.00000000000000	0.00000000000000	-15.63749000000000	0.00000000000000	
5.03332000000000	-5.63384300000000	49.96676800000000	-14.22270800000000	0.30868200000000	0.00000000000000	0.06379100000000	-51.34175800000000	785.76688400000000	-38.25297000000000	0.11214800000000	0.00000000000000	-0.08678000000000	0.00000000000000	-10.04746500000000	0.00000000000000	0.00000000000000	-15.71438900000000	0.00000000000000	
5.03498500000000	-5.76200700000000	57.45040800000000	-15.64035800000000	0.31357500000000	0.00000000000000	0.06483900000000	-52.47870700000000	782.94731600000000	-37.84041700000000	0.11105300000000	0.00000000000000	-0.08668400000000	0.00000000000000	-11.16030900000000	0.00000000000000	0.00000000000000	-15.79482400000000	0.00000000000000	
5.03664500000000	-5.71392900000000	64.94935200000000	-16.88057600000000	0.31814500000000	0.00000000000000	0.06578900000000	-53.63166300000000	780.00227299999995	-37.41162000000000	0.10996200000000	0.00000000000000	-0.08658400000000	0.00000000000000	-12.16619100000000	0.00000000000000	0.00000000000000	-15.87849300000000	0.00000000000000	
5.03832100000000	-5.48268200000000	72.39302400000000	-17.92243300000000	0.32243300000000	0.00000000000000	0.06665600000000	-54.79885300000000	776.92787899999996	-36.96634800000000	0.10887600000000	0.00000000000000	-0.08648200000000	0.00000000000000	-13.04787500000000	0.00000000000000	0.00000000000000	-15.96507000000000	0.00000000000000	
5.03998200000000	-5.06873500000000	79.73615300000000	-18.75658700000000	0.32647600000000	0.00000000000000	0.06745100000000	-55.97839000000000	773.72023100000001	-36.50439900000000	0.10779800000000	0.00000000000000	-0.08637600000000	0.00000000000000	-13.79620300000000	0.00000000000000	0.00000000000000	-16.05420700000000	0.00000000000000	
5.04165000000000	-4.47907100000000	86.95852100000000	-19.38441400000000	0.33030100000000	0.00000000000000	0.06818300000000	-57.16827400000000	770.37541999999996	-36.02560100000000	0.10672700000000	0.00000000000000	-0.08626700000000	0.00000000000000	-14.40967700000000	0.00000000000000	0.00000000000000	-16.14553700000000	0.00000000000000	
5.04331600000000	-3.72590600000000	94.06268400000000	-19.81640700000000	0.33393100000000	0.00000000000000	0.06886000000000	-58.36640400000000	766.88953900000001	-35.52981500000000	0.10566600000000	0.00000000000000	-0.08615500000000	0.00000000000000	-14.89348700000000	0.00000000000000	0.00000000000000	-16.23866800000000	0.00000000000000	
5.04498000000000	-2.82521100000000	101.07019900000000	-20.07010100000000	0.33738700000000	0.00000000000000	0.06948900000000	-59.57057200000000	763.25870099999997	-35.01694000000000	0.10461500000000	0.00000000000000	-0.08603800000000	0.00000000000000	-15.25815200000000	0.00000000000000	0.00000000000000	-16.33319300000000	0.00000000000000	
5.04664500000000	-1.79517000000000	108.01693000000000	-20.16777800000000	0.34068500000000	0.00000000000000	0.07007600000000	-60.77847200000000	759.47905300000002	-34.48691000000000	0.10357600000000	0.00000000000000	-0.08591800000000	0.00000000000000	-15.51795000000000	0.00000000000000	0.00000000000000	-16.42868400000000	0.00000000000000	
5.04831900000000	-0.65472700000000	114.94799200000000	-20.13418000000000	0.34383800000000	0.00000000000000	0.07062400000000	-61.98770400000000	755.54679099999998	-33.93970500000000	0.10255000000000	0.00000000000000	-0.08579500000000	0.00000000000000	-15.68930300000000	0.00000000000000	0.00000000000000	-16.52469500000000	0.00000000000000	
5.04998100000000	0.57768600000000	121.91279299999999	-19.99441400000000	0.34685700000000	0.00000000000000	0.07113900000000	-63.19577700000000	751.45817699999998	-33.37534500000000	0.10153800000000	0.00000000000000	-0.08566700000000	0.00000000000000	-15.78926800000000	0.00000000000000	0.00000000000000	-16.62076400000000	0.00000000000000	
5.05164500000000	1.88516400000000	128.96056100000001	-19.77218700000000	0.34975300000000	0.00000000000000	0.07162300000000	-64.40011800000001	747.20955600000002	-32.79389800000000	0.10054200000000	0.00000000000000	-0.08553600000000	0.00000000000000	-15.83422600000000	0.00000000000000	0.00000000000000	-16.71641300000000	0.00000000000000	
5.05331400000000	3.25304800000000	136.13662099999999	-19.48844100000000	0.35253400000000	0.00000000000000	0.07208000000000	-65.59807600000001	742.79737399999999	-32.19548100000000	0.09956200000000	0.00000000000000	-0.08540000000000	0.00000000000000	-15.83883500000000	0.00000000000000	0.00000000000000	-16.81115100000000	0.00000000000000	
5.05498400000000	4.66936200000000	143.47958000000000	-19.16044300000000	0.35520600000000	0.00000000000000	0.07251100000000	-66.78692599999999	738.21819500000004	-31.58026100000000	0.09860000000000	0.00000000000000	-0.08526100000000	0.00000000000000	-15.81530800000000	0.00000000000000	0.00000000000000	-16.90447200000000	0.00000000000000	
5.05664700000000	6.12495600000000	151.01947300000000	-18.80130000000000	0.35777700000000	0.00000000000000	0.07292000000000	-67.96388300000000	733.46872099999996	-30.94845400000000	0.09765700000000	0.00000000000000	-0.08511700000000	0.00000000000000	-15.77298400000000	0.00000000000000	0.00000000000000	-16.99586200000000	0.00000000000000	
5.05831200000000	7.61342600000000	158.77683300000001	-18.41987300000000	0.36025000000000	0.00000000000000	0.07330800000000	-69.12609999999999	728.54581299999995	-30.30033400000000	0.09673400000000	0.00000000000000	-0.08496900000000	0.00000000000000	-15.71820300000000	0.00000000000000	0.00000000000000	-17.08479400000000	0.00000000000000	
5.05997800000000	9.13083700000000	166.76259800000000	-18.02101700000000	0.36263100000000	0.00000000000000	0.07367700000000	-70.27068400000000	723.44650700000000	-29.63622500000000	0.09583200000000	0.00000000000000	-0.08481600000000	0.00000000000000	-15.65441600000000	0.00000000000000	0.00000000000000	-17.17073300000000	0.00000000000000	
5.06164800000000	10.67531000000000	174.97869800000001	-17.60607900000000	0.36492300000000	0.00000000000000	0.07402900000000	-71.39469900000000	718.16803700000003	-28.95650900000000	0.09495200000000	0.00000000000000	-0.08466000000000	0.00000000000000	-15.58249700000000	0.00000000000000	0.00000000000000	-17.25314000000000	0.00000000000000	
5.06332000000000	12.24654100000000	183.41916100000000	-17.17355500000000	0.36712900000000	0.00000000000000	0.07436500000000	-72.49517800000000	712.70785300000000	-28.26162400000000	0.09409500000000	0.00000000000000	-0.08449800000000	0.00000000000000	-15.50119400000000	0.00000000000000	0.00000000000000	-17.33147000000000	0.00000000000000	
5.06498300000000	13.84528200000000	192.07155599999999	-16.71983900000000	0.36925200000000	0.00000000000000	0.07468500000000	-73.56912600000000	707.06364299999996	-27.55206200000000	0.09326200000000	0.00000000000000	-0.08433300000000	0.00000000000000	-15.40765000000000	0.00000000000000	0.00000000000000	-17.40517300000000	0.00000000000000	
5.06665100000000	15.47284100000000	200.91860100000000	-16.23999300000000	0.37129400000000	0.00000000000000	0.07499200000000	-74.61353699999999	701.23335099999997	-26.82837200000000	0.09245400000000	0.00000000000000	-0.08416300000000	0.00000000000000	-15.29795700000000	0.00000000000000	0.00000000000000	-17.47370100000000	0.00000000000000	
5.06831100000000	17.13063900000000	209.93979300000001	-15.72846600000000	0.37325800000000	0.00000000000000	0.07528600000000	-75.62539500000000	695.21519499999999	-26.09116000000000	0.09167100000000	0.00000000000000	-0.08398800000000	0.00000000000000	-15.16768500000000	0.00000000000000	0.00000000000000	-17.53650600000000	0.00000000000000	
5.06998100000000	18.81982800000000	219.11293200000000	-15.17972500000000	0.37514500000000	0.00000000000000	0.07556800000000	-76.60168899999999	689.00768500000004	-25.34108700000000	0.09091400000000	0.00000000000000	-0.08380800000000	0.00000000000000	-15.01235200000000	0.00000000000000	0.00000000000000	-17.59304100000000	0.00000000000000	
5.07165500000000	20.54101400000000	228.41545300000001	-14.58877300000000	0.37695600000000	0.00000000000000	0.07583800000000	-77.53942000000001	682.60963800000002	-24.57886800000000	0.09018400000000	0.00000000000000	-0.08362400000000	0.00000000000000	-14.82782100000000	0.00000000000000	0.00000000000000	-17.64276700000000	0.00000000000000	
5.07331800000000	22.29405400000000	237.82549499999999	-13.95152700000000	0.37869200000000	0.00000000000000	0.07609900000000	-78.43561099999999	676.02019099999995	-23.80527200000000	0.08948200000000	0.00000000000000	-0.08343600000000	0.00000000000000	-14.61059400000000	0.00000000000000	0.00000000000000	-17.68515000000000	0.00000000000000	
